HIERARCHY
ROOT Hips
{
  OFFSET 0 0 0
  CHANNELS 6 Xposition Yposition Zposition Zrotation Yrotation Xrotation
  JOINT LeftThigh
  {
    OFFSET 8.409438 0 -5.917753
    CHANNELS 3 Zrotation Yrotation Xrotation
    JOINT LeftLeg
    {
      OFFSET 0 0 -42.358652
      CHANNELS 3 Zrotation Yrotation Xrotation
      JOINT LeftFoot
      {
        OFFSET 0 0 -39.357303
        CHANNELS 3 Zrotation Yrotation Xrotation
      }
    }
  }
  JOINT RightThigh
  {
    OFFSET -8.409438 0 -5.917753
    CHANNELS 3 Zrotation Yrotation Xrotation
    JOINT RightLeg
    {
      OFFSET 0 0 -42.358652
      CHANNELS 3 Zrotation Yrotation Xrotation
      JOINT RightFoot
      {
        OFFSET 0 0 -39.357303
        CHANNELS 3 Zrotation Yrotation Xrotation
      }
    }
  }
  JOINT SpineLow
  {
    OFFSET 0 0 4.719101
    CHANNELS 3 Zrotation Yrotation Xrotation
    JOINT SpineMid
    {
      OFFSET 0 0 12.899191
      CHANNELS 3 Zrotation Yrotation Xrotation
      JOINT Chest
      {
        OFFSET 0 0 12.899191
        CHANNELS 3 Zrotation Yrotation Xrotation
        JOINT LeftShoulder
        {
          OFFSET 7.550562 1.41573 9.438202
          CHANNELS 3 Zrotation Yrotation Xrotation
          JOINT LeftArm
          {
            OFFSET 9.155056 0 4.247191
            CHANNELS 3 Zrotation Yrotation Xrotation
            JOINT LeftForearm
            {
              OFFSET 0 0 25.771955
              CHANNELS 3 Zrotation Yrotation Xrotation
              JOINT LeftHand
              {
                OFFSET 0 0 25.197169
                CHANNELS 3 Zrotation Yrotation Xrotation
              }
            }
          }
        }
        JOINT RightShoulder
        {
          OFFSET -7.550562 1.41573 9.438202
          CHANNELS 3 Zrotation Yrotation Xrotation
          JOINT RightArm
          {
            OFFSET -9.155056 0 4.247191
            CHANNELS 3 Zrotation Yrotation Xrotation
            JOINT RightForearm
            {
              OFFSET 0 0 -25.771955
              CHANNELS 3 Zrotation Yrotation Xrotation
              JOINT RightHand
              {
                OFFSET 0 0 -25.197169
                CHANNELS 3 Zrotation Yrotation Xrotation
              }
            }
          }
        }
        JOINT Neck
        {
          OFFSET 0 0 15.101124
          CHANNELS 3 Zrotation Yrotation Xrotation
          JOINT Head
          {
            OFFSET 0 0 11.325843
            CHANNELS 3 Zrotation Yrotation Xrotation
            End Site
            {
              OFFSET 0 0 14.157303
            }
          }
        }
      }
    }
  }
}
MOTION
Frames: 10
Frame Time: 0.0
0.0  89.887642  0.0  0.863722  -9.693985  -92.626229  7.445067  -10.479173  1.502282  0.08129  2.744559  21.70599  4.251981  2.399612  2.207105  -11.907734  10.248862  -4.110743  -8.655818  5.846945  7.537169  3.236658  0.007674  -1.067753  4.365518  1.309522  0.456531  11.96723  3.483582  1.480501  11.967229  3.483582  1.480501  4.424744  1.326149  6.786285  165.726537  9.786044  172.766813  -31.146749  55.017471  83.186221  71.722814  -26.845027  21.81798  -8.94337  4.348991  -17.44369  -99.386077  46.243451  -138.61321  -34.473655  17.554061  -76.594303  71.675399  -5.561851  16.705473  -20.936273  -2.916428  1.951464  -15.689697  -2.257368  1.365132  
0.0  89.887642  0.0  0.731079  -9.917607  -92.435686  7.284685  -10.633125  1.781466  0.66015  2.707831  21.357735  4.271942  2.344228  2.166157  -11.829507  9.955991  -4.035153  -7.450692  5.754071  7.164985  3.210328  0.027196  -1.070277  3.932751  1.281495  0.610019  10.790129  3.392819  1.872037  10.790129  3.39282  1.872037  5.277584  1.395857  4.175916  165.153977  10.121796  173.04028  -30.89284  54.515354  80.6497  72.29757  -28.415658  19.806064  -7.80947  6.108541  -18.969016  -97.876525  46.782775  -136.735586  -34.379307  16.291848  -76.242849  70.358012  -4.775142  17.11433  -18.78123  -2.513277  1.247628  -14.078604  -1.925478  0.859213  
0.0  89.887642  0.0  0.641794  -10.983666  -92.107322  7.666903  -10.816734  1.806126  1.57667  2.660537  21.161844  4.345895  2.345353  2.147254  -10.612789  9.653925  -4.068671  -6.358801  5.745171  6.91341  3.148453  -0.028602  -1.070991  3.562316  1.206723  0.668759  9.77681  3.191496  2.002457  9.776809  3.191496  2.002457  6.517272  1.97175  2.565219  164.695653  10.339623  173.575281  -30.1882  53.680597  79.124572  73.036601  -28.923407  18.108535  -6.125038  6.975285  -17.65178  -94.794573  44.836051  -134.777748  -34.386797  14.994137  -76.27572  70.229773  -4.598601  18.173149  -16.504867  -1.938024  0.943215  -12.374516  -1.480283  0.655533  
0.0  89.887642  0.0  0.861251  -12.492029  -92.187097  8.156667  -10.708232  2.220902  2.897999  2.507469  21.038055  4.35761  2.363799  2.157017  -8.969444  9.737745  -4.041441  -6.234069  5.869622  6.986108  3.191485  -0.046118  -1.035328  3.23453  1.172919  0.662575  8.878727  3.110608  1.965472  8.878726  3.110608  1.965472  8.18459  2.571055  1.975038  163.905738  10.363026  173.813533  -30.410099  52.374709  78.396761  73.664001  -28.153461  18.55131  -2.599438  5.683966  -16.365445  -93.407021  43.690011  -135.353741  -34.542967  15.327009  -76.598323  69.690605  -4.800745  18.535715  -14.379409  -1.502453  1.275573  -10.78086  -1.157625  0.921861  
0.0  89.887642  0.0  1.106011  -14.135596  -92.655728  9.065956  -10.557859  3.093387  4.074741  2.277282  20.864123  4.243413  2.349647  2.149253  -7.419014  9.814148  -3.761207  -6.637388  6.060515  7.157456  3.136943  0.028945  -0.903418  3.136418  1.141213  0.532739  8.60339  3.044123  1.602333  8.60339  3.044123  1.602333  8.685336  2.75798  2.797175  163.368589  10.392494  173.882947  -30.069496  50.561411  78.874552  74.132505  -27.15828  19.816585  0.64544  4.552135  -14.321116  -92.748657  43.255977  -135.551693  -34.6298  15.560431  -76.916798  68.951654  -5.076898  18.380194  -13.283857  -1.229215  2.285004  -9.958083  -0.97215  1.687905  
0.0  89.887642  0.0  1.378002  -15.181136  -93.526824  9.731182  -10.803663  4.23598  4.705225  2.455034  20.754315  4.18085  2.36001  2.166144  -6.426059  10.154933  -3.064154  -6.846872  5.998006  7.371865  2.99974  0.112755  -0.769338  3.13583  1.139004  0.475453  8.599133  3.045571  1.445635  8.599133  3.045571  1.445635  8.400404  2.606006  3.728906  163.293075  10.577103  173.88468  -28.861626  48.764942  79.727746  74.342758  -26.647044  21.021457  1.672756  4.337367  -11.863824  -90.677997  42.513761  -134.104429  -34.408113  14.84333  -76.921266  68.561227  -5.290281  18.545909  -12.938629  -1.271545  3.110561  -9.697404  -1.020099  2.307122  
0.0  89.887642  0.0  1.508269  -16.218052  -94.300808  10.846127  -11.003166  5.139956  4.95464  2.47433  20.803639  4.139589  2.365945  2.173394  -6.069563  10.089106  -2.56548  -6.152877  6.107761  7.647283  3.047785  0.231175  -0.665792  3.253477  1.157735  0.474724  8.92143  3.09399  1.451534  8.92143  3.09399  1.451534  7.829109  2.135589  4.133772  163.61204  10.711224  173.701413  -27.175993  47.749729  80.876395  74.502591  -26.447933  21.578551  1.610127  4.214774  -9.813479  -88.683008  41.65866  -132.519999  -33.895603  13.851121  -76.756717  68.199983  -5.397875  18.41684  -13.081879  -1.558702  3.509814  -9.802242  -1.244894  2.600233  
0.0  89.887642  0.0  1.668062  -17.087005  -95.014354  12.175467  -11.370213  5.813798  3.84764  2.656868  20.332651  4.832033  2.651898  2.714332  -5.957682  10.147252  -2.27558  -5.103367  6.173698  8.098771  3.136289  0.348425  -0.587743  3.409012  1.172902  0.521823  9.349467  3.124998  1.58939  9.349466  3.124998  1.589389  7.325625  1.785176  4.327038  163.9559  10.705875  173.514005  -26.026671  47.348444  81.768732  74.051505  -26.493941  21.622807  -0.195615  3.947828  -9.22375  -86.104535  41.81358  -131.422103  -33.118531  12.727133  -76.525313  68.036509  -5.461285  18.441378  -13.446751  -1.864241  3.536249  -10.073793  -1.476905  2.612414  
0.0  89.887642  0.0  1.734098  -17.748234  -95.464667  13.657977  -11.792909  6.104004  3.417721  2.902891  20.649139  4.758014  2.64706  2.734503  -5.958779  10.183334  -2.276926  -4.102529  6.195326  8.666922  3.211275  0.356295  -0.521917  3.547146  1.182145  0.575572  9.730065  3.138708  1.743823  9.730065  3.138708  1.743823  6.859445  1.53031  4.323867  164.361369  10.503118  173.319416  -25.862665  47.403025  82.074194  72.937164  -26.804578  21.471966  -0.75153  3.694551  -8.750514  -85.826604  41.870207  -131.064883  -32.394629  11.975126  -76.373172  68.103229  -5.491778  18.586855  -13.831119  -2.168368  3.318884  -10.360694  -1.702489  2.441244  
0.0  89.887642  0.0  1.662186  -18.202057  -95.670722  14.986715  -12.329725  5.97577  2.814091  3.199025  21.106942  4.721459  2.667753  2.777808  -5.850688  10.17542  -2.44308  -3.488774  6.151543  9.293962  3.265997  0.358438  -0.440026  3.631281  1.166524  0.602133  9.960819  3.089745  1.817813  9.960819  3.089745  1.817814  6.609153  1.497713  4.36167  164.876707  10.339408  173.101484  -27.680191  48.059431  81.187153  71.630953  -26.811806  21.800805  -1.559407  3.644879  -8.526444  -85.745026  42.068561  -130.853572  -31.948095  11.79719  -76.37837  68.012803  -5.479184  18.621127  -14.216741  -2.449172  3.043542  -10.649053  -1.908966  2.226719  
